<mxfile host="app.diagrams.net" agent="Mozilla/5.0 (Windows NT 10.0; Win64; x64) AppleWebKit/537.36 (KHTML, like Gecko) Chrome/142.0.0.0 Safari/537.36" version="28.2.5">
  <diagram name="Page-1" id="fNi7HsKWAP1Vv983aiha">
    <mxGraphModel dx="928" dy="479" grid="1" gridSize="10" guides="1" tooltips="1" connect="1" arrows="1" fold="1" page="1" pageScale="1" pageWidth="1100" pageHeight="850" math="0" shadow="0">
      <root>
        <mxCell id="0" />
        <mxCell id="1" parent="0" />
        <mxCell id="CxoHVnS2cL3AwVolu_ET-243" value="" style="rounded=0;whiteSpace=wrap;html=1;fillColor=none;" parent="1" vertex="1">
          <mxGeometry x="120" y="390" width="880" height="550" as="geometry" />
        </mxCell>
        <mxCell id="CxoHVnS2cL3AwVolu_ET-139" value="" style="endArrow=none;dashed=1;html=1;dashPattern=1 3;strokeWidth=2;rounded=1;" parent="1" edge="1">
          <mxGeometry width="50" height="50" relative="1" as="geometry">
            <mxPoint x="930" y="930" as="sourcePoint" />
            <mxPoint x="930" y="460" as="targetPoint" />
          </mxGeometry>
        </mxCell>
        <mxCell id="CxoHVnS2cL3AwVolu_ET-140" style="edgeStyle=orthogonalEdgeStyle;rounded=1;orthogonalLoop=1;jettySize=auto;html=1;entryX=0;entryY=0.5;entryDx=0;entryDy=0;endArrow=none;endFill=0;strokeWidth=3;" parent="1" source="CxoHVnS2cL3AwVolu_ET-170" target="CxoHVnS2cL3AwVolu_ET-152" edge="1">
          <mxGeometry relative="1" as="geometry" />
        </mxCell>
        <mxCell id="CxoHVnS2cL3AwVolu_ET-248" style="edgeStyle=orthogonalEdgeStyle;rounded=0;orthogonalLoop=1;jettySize=auto;html=1;entryX=0;entryY=0.5;entryDx=0;entryDy=0;strokeWidth=2;" parent="1" source="CxoHVnS2cL3AwVolu_ET-141" target="CxoHVnS2cL3AwVolu_ET-170" edge="1">
          <mxGeometry relative="1" as="geometry" />
        </mxCell>
        <mxCell id="CxoHVnS2cL3AwVolu_ET-141" value="" style="ellipse;whiteSpace=wrap;html=1;aspect=fixed;fillColor=#1ba1e2;fontColor=#ffffff;strokeColor=#006EAF;rounded=1;" parent="1" vertex="1">
          <mxGeometry x="253" y="746" width="35" height="35" as="geometry" />
        </mxCell>
        <mxCell id="CxoHVnS2cL3AwVolu_ET-142" value="PROD" style="text;html=1;strokeColor=#36393d;fillColor=#cdeb8b;align=center;verticalAlign=middle;whiteSpace=wrap;rounded=0;" parent="1" vertex="1">
          <mxGeometry x="149" y="738" width="90" height="50" as="geometry" />
        </mxCell>
        <mxCell id="CxoHVnS2cL3AwVolu_ET-143" style="edgeStyle=orthogonalEdgeStyle;rounded=1;orthogonalLoop=1;jettySize=auto;html=1;entryX=0;entryY=0.5;entryDx=0;entryDy=0;strokeWidth=2;" parent="1" source="CxoHVnS2cL3AwVolu_ET-144" target="CxoHVnS2cL3AwVolu_ET-150" edge="1">
          <mxGeometry relative="1" as="geometry" />
        </mxCell>
        <mxCell id="CxoHVnS2cL3AwVolu_ET-144" value="" style="ellipse;whiteSpace=wrap;html=1;aspect=fixed;fillColor=#ffcd28;strokeColor=#d79b00;gradientColor=#ffa500;rounded=1;" parent="1" vertex="1">
          <mxGeometry x="313" y="640" width="30" height="30" as="geometry" />
        </mxCell>
        <mxCell id="CxoHVnS2cL3AwVolu_ET-145" value="" style="endArrow=classic;html=1;rounded=1;entryX=0;entryY=1;entryDx=0;entryDy=0;exitX=1;exitY=0;exitDx=0;exitDy=0;strokeWidth=2;" parent="1" source="CxoHVnS2cL3AwVolu_ET-141" target="CxoHVnS2cL3AwVolu_ET-144" edge="1">
          <mxGeometry width="50" height="50" relative="1" as="geometry">
            <mxPoint x="273" y="746" as="sourcePoint" />
            <mxPoint x="323" y="696" as="targetPoint" />
          </mxGeometry>
        </mxCell>
        <mxCell id="CxoHVnS2cL3AwVolu_ET-146" value="FEATURE" style="text;html=1;strokeColor=#BD7000;fillColor=#f0a30a;align=center;verticalAlign=middle;whiteSpace=wrap;rounded=0;fontColor=#000000;" parent="1" vertex="1">
          <mxGeometry x="149" y="630" width="90" height="50" as="geometry" />
        </mxCell>
        <mxCell id="CxoHVnS2cL3AwVolu_ET-207" style="edgeStyle=orthogonalEdgeStyle;rounded=1;orthogonalLoop=1;jettySize=auto;html=1;strokeWidth=2;fillColor=#cce5ff;strokeColor=#000000;" parent="1" source="CxoHVnS2cL3AwVolu_ET-147" target="CxoHVnS2cL3AwVolu_ET-157" edge="1">
          <mxGeometry relative="1" as="geometry" />
        </mxCell>
        <mxCell id="CxoHVnS2cL3AwVolu_ET-147" value="" style="ellipse;whiteSpace=wrap;html=1;aspect=fixed;fillColor=#ffff88;strokeColor=#36393d;rounded=1;" parent="1" vertex="1">
          <mxGeometry x="570" y="524" width="30" height="30" as="geometry" />
        </mxCell>
        <mxCell id="CxoHVnS2cL3AwVolu_ET-148" value="PR" style="text;html=1;strokeColor=none;fillColor=none;align=center;verticalAlign=middle;whiteSpace=wrap;rounded=1;" parent="1" vertex="1">
          <mxGeometry x="380" y="691" width="60" height="30" as="geometry" />
        </mxCell>
        <mxCell id="CxoHVnS2cL3AwVolu_ET-150" value="" style="ellipse;whiteSpace=wrap;html=1;aspect=fixed;fillColor=#ffcd28;strokeColor=#d79b00;gradientColor=#ffa500;rounded=1;" parent="1" vertex="1">
          <mxGeometry x="393" y="640" width="30" height="30" as="geometry" />
        </mxCell>
        <mxCell id="CxoHVnS2cL3AwVolu_ET-246" style="edgeStyle=orthogonalEdgeStyle;rounded=0;orthogonalLoop=1;jettySize=auto;html=1;entryX=0;entryY=0.5;entryDx=0;entryDy=0;strokeWidth=2;" parent="1" source="CxoHVnS2cL3AwVolu_ET-152" target="CxoHVnS2cL3AwVolu_ET-222" edge="1">
          <mxGeometry relative="1" as="geometry" />
        </mxCell>
        <mxCell id="CxoHVnS2cL3AwVolu_ET-152" value="" style="ellipse;whiteSpace=wrap;html=1;aspect=fixed;fillColor=#1ba1e2;fontColor=#ffffff;strokeColor=#006EAF;rounded=1;" parent="1" vertex="1">
          <mxGeometry x="530" y="746" width="35" height="35" as="geometry" />
        </mxCell>
        <mxCell id="CxoHVnS2cL3AwVolu_ET-155" style="edgeStyle=orthogonalEdgeStyle;rounded=1;orthogonalLoop=1;jettySize=auto;html=1;entryX=0;entryY=0.5;entryDx=0;entryDy=0;strokeWidth=3;" parent="1" source="CxoHVnS2cL3AwVolu_ET-156" target="CxoHVnS2cL3AwVolu_ET-160" edge="1">
          <mxGeometry relative="1" as="geometry" />
        </mxCell>
        <mxCell id="CxoHVnS2cL3AwVolu_ET-156" value="" style="ellipse;whiteSpace=wrap;html=1;aspect=fixed;fillColor=#1ba1e2;fontColor=#ffffff;strokeColor=#006EAF;rounded=1;" parent="1" vertex="1">
          <mxGeometry x="680" y="746" width="35" height="35" as="geometry" />
        </mxCell>
        <mxCell id="DnbEcoPxgvnVToLIo6h6-12" style="edgeStyle=orthogonalEdgeStyle;rounded=0;orthogonalLoop=1;jettySize=auto;html=1;strokeWidth=2;" edge="1" parent="1" source="CxoHVnS2cL3AwVolu_ET-157" target="CxoHVnS2cL3AwVolu_ET-224">
          <mxGeometry relative="1" as="geometry" />
        </mxCell>
        <mxCell id="CxoHVnS2cL3AwVolu_ET-157" value="" style="ellipse;whiteSpace=wrap;html=1;aspect=fixed;fillColor=#ffff88;strokeColor=#36393d;rounded=1;" parent="1" vertex="1">
          <mxGeometry x="720" y="524" width="30" height="30" as="geometry" />
        </mxCell>
        <mxCell id="CxoHVnS2cL3AwVolu_ET-159" style="edgeStyle=orthogonalEdgeStyle;rounded=1;orthogonalLoop=1;jettySize=auto;html=1;strokeWidth=3;exitX=1;exitY=0.5;exitDx=0;exitDy=0;" parent="1" source="CxoHVnS2cL3AwVolu_ET-160" edge="1">
          <mxGeometry relative="1" as="geometry">
            <mxPoint x="967" y="763" as="targetPoint" />
            <mxPoint x="860.9928556845359" y="763" as="sourcePoint" />
          </mxGeometry>
        </mxCell>
        <mxCell id="CxoHVnS2cL3AwVolu_ET-160" value="" style="ellipse;whiteSpace=wrap;html=1;aspect=fixed;fillColor=#1ba1e2;fontColor=#ffffff;strokeColor=#006EAF;rounded=1;" parent="1" vertex="1">
          <mxGeometry x="774" y="746" width="35" height="35" as="geometry" />
        </mxCell>
        <mxCell id="CxoHVnS2cL3AwVolu_ET-161" value="Branching" style="text;html=1;strokeColor=none;fillColor=none;align=center;verticalAlign=middle;whiteSpace=wrap;rounded=1;" parent="1" vertex="1">
          <mxGeometry x="303" y="700" width="60" height="30" as="geometry" />
        </mxCell>
        <mxCell id="CxoHVnS2cL3AwVolu_ET-170" value="" style="ellipse;whiteSpace=wrap;html=1;aspect=fixed;fillColor=#1ba1e2;fontColor=#ffffff;strokeColor=#006EAF;rounded=1;" parent="1" vertex="1">
          <mxGeometry x="430" y="746" width="35" height="35" as="geometry" />
        </mxCell>
        <mxCell id="CxoHVnS2cL3AwVolu_ET-171" value="" style="endArrow=classic;html=1;rounded=1;entryX=0.5;entryY=0;entryDx=0;entryDy=0;exitX=1;exitY=1;exitDx=0;exitDy=0;strokeWidth=2;fillColor=#1ba1e2;strokeColor=#006EAF;dashed=1;" parent="1" source="CxoHVnS2cL3AwVolu_ET-150" target="CxoHVnS2cL3AwVolu_ET-170" edge="1">
          <mxGeometry width="50" height="50" relative="1" as="geometry">
            <mxPoint x="575" y="681" as="sourcePoint" />
            <mxPoint x="625" y="631" as="targetPoint" />
          </mxGeometry>
        </mxCell>
        <mxCell id="CxoHVnS2cL3AwVolu_ET-173" value="PR" style="text;html=1;strokeColor=none;fillColor=none;align=center;verticalAlign=middle;whiteSpace=wrap;rounded=1;" parent="1" vertex="1">
          <mxGeometry x="485" y="640" width="30" height="41" as="geometry" />
        </mxCell>
        <mxCell id="CxoHVnS2cL3AwVolu_ET-174" value="" style="ellipse;whiteSpace=wrap;html=1;aspect=fixed;fillColor=#1ba1e2;fontColor=#ffffff;strokeColor=#006EAF;rounded=1;" parent="1" vertex="1">
          <mxGeometry x="345" y="745" width="36" height="36" as="geometry" />
        </mxCell>
        <mxCell id="CxoHVnS2cL3AwVolu_ET-177" value="" style="edgeStyle=orthogonalEdgeStyle;rounded=1;orthogonalLoop=1;jettySize=auto;html=1;strokeWidth=2;" parent="1" source="CxoHVnS2cL3AwVolu_ET-178" target="CxoHVnS2cL3AwVolu_ET-182" edge="1">
          <mxGeometry relative="1" as="geometry" />
        </mxCell>
        <mxCell id="CxoHVnS2cL3AwVolu_ET-178" value="" style="ellipse;whiteSpace=wrap;html=1;aspect=fixed;fillColor=#ffcd28;strokeColor=#d79b00;gradientColor=#ffa500;rounded=1;" parent="1" vertex="1">
          <mxGeometry x="410" y="849" width="30" height="30" as="geometry" />
        </mxCell>
        <mxCell id="CxoHVnS2cL3AwVolu_ET-179" value="" style="endArrow=classic;html=1;rounded=1;entryX=0;entryY=0;entryDx=0;entryDy=0;exitX=1;exitY=1;exitDx=0;exitDy=0;strokeWidth=2;" parent="1" source="CxoHVnS2cL3AwVolu_ET-174" target="CxoHVnS2cL3AwVolu_ET-178" edge="1">
          <mxGeometry width="50" height="50" relative="1" as="geometry">
            <mxPoint x="318" y="934" as="sourcePoint" />
            <mxPoint x="352" y="849" as="targetPoint" />
          </mxGeometry>
        </mxCell>
        <mxCell id="CxoHVnS2cL3AwVolu_ET-180" value="Now" style="text;html=1;strokeColor=none;fillColor=none;align=center;verticalAlign=middle;whiteSpace=wrap;rounded=1;" parent="1" vertex="1">
          <mxGeometry x="899" y="435" width="60" height="30" as="geometry" />
        </mxCell>
        <mxCell id="CxoHVnS2cL3AwVolu_ET-182" value="" style="ellipse;whiteSpace=wrap;html=1;aspect=fixed;fillColor=#ffcd28;strokeColor=#d79b00;gradientColor=#ffa500;rounded=1;" parent="1" vertex="1">
          <mxGeometry x="485" y="849" width="30" height="30" as="geometry" />
        </mxCell>
        <mxCell id="CxoHVnS2cL3AwVolu_ET-187" value="" style="edgeStyle=orthogonalEdgeStyle;rounded=1;orthogonalLoop=1;jettySize=auto;html=1;strokeWidth=2;" parent="1" source="CxoHVnS2cL3AwVolu_ET-188" edge="1">
          <mxGeometry relative="1" as="geometry">
            <mxPoint x="913.5" y="864" as="targetPoint" />
          </mxGeometry>
        </mxCell>
        <mxCell id="CxoHVnS2cL3AwVolu_ET-188" value="" style="ellipse;whiteSpace=wrap;html=1;aspect=fixed;fillColor=#ffcd28;strokeColor=#d79b00;gradientColor=#ffa500;rounded=1;" parent="1" vertex="1">
          <mxGeometry x="838.5" y="849" width="30" height="30" as="geometry" />
        </mxCell>
        <mxCell id="CxoHVnS2cL3AwVolu_ET-189" value="" style="endArrow=classic;html=1;rounded=1;entryX=0;entryY=0;entryDx=0;entryDy=0;exitX=1;exitY=1;exitDx=0;exitDy=0;strokeWidth=2;" parent="1" target="CxoHVnS2cL3AwVolu_ET-188" edge="1">
          <mxGeometry width="50" height="50" relative="1" as="geometry">
            <mxPoint x="804.5" y="776" as="sourcePoint" />
            <mxPoint x="780.5" y="849" as="targetPoint" />
          </mxGeometry>
        </mxCell>
        <mxCell id="CxoHVnS2cL3AwVolu_ET-190" value="Branching" style="text;html=1;strokeColor=none;fillColor=none;align=center;verticalAlign=middle;whiteSpace=wrap;rounded=1;" parent="1" vertex="1">
          <mxGeometry x="761.5" y="809" width="60" height="30" as="geometry" />
        </mxCell>
        <mxCell id="CxoHVnS2cL3AwVolu_ET-191" value="FEATURE" style="text;html=1;strokeColor=#BD7000;fillColor=#f0a30a;align=center;verticalAlign=middle;whiteSpace=wrap;rounded=0;fontColor=#000000;" parent="1" vertex="1">
          <mxGeometry x="149" y="840" width="90" height="50" as="geometry" />
        </mxCell>
        <mxCell id="CxoHVnS2cL3AwVolu_ET-193" value="&lt;font style=&quot;font-size: 14px;&quot;&gt;&lt;b&gt;Based Branching Strategy&lt;/b&gt;&lt;/font&gt;" style="text;html=1;strokeColor=none;fillColor=none;align=center;verticalAlign=middle;whiteSpace=wrap;rounded=1;" parent="1" vertex="1">
          <mxGeometry x="164" y="410" width="267" height="30" as="geometry" />
        </mxCell>
        <mxCell id="CxoHVnS2cL3AwVolu_ET-195" value="" style="endArrow=classic;html=1;rounded=1;exitX=1;exitY=0;exitDx=0;exitDy=0;dashed=1;fillColor=#1ba1e2;strokeColor=#006EAF;strokeWidth=2;" parent="1" edge="1">
          <mxGeometry width="50" height="50" relative="1" as="geometry">
            <mxPoint x="196" y="957" as="sourcePoint" />
            <mxPoint x="280" y="957" as="targetPoint" />
          </mxGeometry>
        </mxCell>
        <mxCell id="CxoHVnS2cL3AwVolu_ET-196" value="Pull Request" style="text;html=1;strokeColor=none;fillColor=none;align=center;verticalAlign=middle;whiteSpace=wrap;rounded=1;" parent="1" vertex="1">
          <mxGeometry x="193" y="970" width="60" height="30" as="geometry" />
        </mxCell>
        <mxCell id="CxoHVnS2cL3AwVolu_ET-209" value="Tag Version" style="text;html=1;strokeColor=none;fillColor=none;align=center;verticalAlign=middle;whiteSpace=wrap;rounded=1;" parent="1" vertex="1">
          <mxGeometry x="239" y="790" width="83" height="30" as="geometry" />
        </mxCell>
        <mxCell id="DnbEcoPxgvnVToLIo6h6-13" style="edgeStyle=orthogonalEdgeStyle;rounded=0;orthogonalLoop=1;jettySize=auto;html=1;strokeWidth=2;" edge="1" parent="1" source="CxoHVnS2cL3AwVolu_ET-211" target="CxoHVnS2cL3AwVolu_ET-216">
          <mxGeometry relative="1" as="geometry" />
        </mxCell>
        <mxCell id="CxoHVnS2cL3AwVolu_ET-211" value="" style="ellipse;whiteSpace=wrap;html=1;aspect=fixed;fillColor=#ffcd28;strokeColor=#d79b00;gradientColor=#ffa500;rounded=1;" parent="1" vertex="1">
          <mxGeometry x="532" y="640" width="30" height="30" as="geometry" />
        </mxCell>
        <mxCell id="CxoHVnS2cL3AwVolu_ET-212" value="" style="endArrow=classic;html=1;rounded=1;entryX=0;entryY=1;entryDx=0;entryDy=0;exitX=1;exitY=0;exitDx=0;exitDy=0;strokeWidth=2;" parent="1" edge="1">
          <mxGeometry width="50" height="50" relative="1" as="geometry">
            <mxPoint x="502" y="750" as="sourcePoint" />
            <mxPoint x="536" y="665" as="targetPoint" />
          </mxGeometry>
        </mxCell>
        <mxCell id="CxoHVnS2cL3AwVolu_ET-213" value="" style="ellipse;whiteSpace=wrap;html=1;aspect=fixed;fillColor=#1ba1e2;fontColor=#ffffff;strokeColor=#006EAF;rounded=1;" parent="1" vertex="1">
          <mxGeometry x="481" y="746" width="35" height="35" as="geometry" />
        </mxCell>
        <mxCell id="CxoHVnS2cL3AwVolu_ET-215" value="PR" style="text;html=1;strokeColor=none;fillColor=none;align=center;verticalAlign=middle;whiteSpace=wrap;rounded=1;" parent="1" vertex="1">
          <mxGeometry x="571" y="693" width="60" height="30" as="geometry" />
        </mxCell>
        <mxCell id="CxoHVnS2cL3AwVolu_ET-216" value="" style="ellipse;whiteSpace=wrap;html=1;aspect=fixed;fillColor=#ffcd28;strokeColor=#d79b00;gradientColor=#ffa500;rounded=1;" parent="1" vertex="1">
          <mxGeometry x="589" y="641" width="30" height="30" as="geometry" />
        </mxCell>
        <mxCell id="CxoHVnS2cL3AwVolu_ET-217" value="" style="endArrow=classic;html=1;rounded=1;entryX=0.5;entryY=0;entryDx=0;entryDy=0;exitX=1;exitY=1;exitDx=0;exitDy=0;strokeWidth=2;fillColor=#1ba1e2;strokeColor=#006EAF;dashed=1;" parent="1" source="CxoHVnS2cL3AwVolu_ET-216" edge="1">
          <mxGeometry width="50" height="50" relative="1" as="geometry">
            <mxPoint x="766" y="683" as="sourcePoint" />
            <mxPoint x="642" y="748" as="targetPoint" />
          </mxGeometry>
        </mxCell>
        <mxCell id="CxoHVnS2cL3AwVolu_ET-247" style="edgeStyle=orthogonalEdgeStyle;rounded=0;orthogonalLoop=1;jettySize=auto;html=1;exitX=1;exitY=0.5;exitDx=0;exitDy=0;entryX=0;entryY=0.5;entryDx=0;entryDy=0;strokeWidth=2;" parent="1" source="CxoHVnS2cL3AwVolu_ET-222" target="CxoHVnS2cL3AwVolu_ET-156" edge="1">
          <mxGeometry relative="1" as="geometry" />
        </mxCell>
        <mxCell id="CxoHVnS2cL3AwVolu_ET-222" value="" style="ellipse;whiteSpace=wrap;html=1;aspect=fixed;fillColor=#1ba1e2;fontColor=#ffffff;strokeColor=#006EAF;rounded=1;" parent="1" vertex="1">
          <mxGeometry x="626" y="746" width="35" height="35" as="geometry" />
        </mxCell>
        <mxCell id="CxoHVnS2cL3AwVolu_ET-224" value="" style="ellipse;whiteSpace=wrap;html=1;aspect=fixed;fillColor=#ffff88;strokeColor=#36393d;rounded=1;" parent="1" vertex="1">
          <mxGeometry x="899" y="524" width="30" height="30" as="geometry" />
        </mxCell>
        <mxCell id="CxoHVnS2cL3AwVolu_ET-225" value="" style="ellipse;whiteSpace=wrap;html=1;aspect=fixed;fillColor=#1ba1e2;fontColor=#ffffff;strokeColor=#006EAF;rounded=1;" parent="1" vertex="1">
          <mxGeometry x="839" y="746" width="35" height="35" as="geometry" />
        </mxCell>
        <mxCell id="CxoHVnS2cL3AwVolu_ET-226" value="" style="endArrow=classic;html=1;rounded=1;exitX=1;exitY=0;exitDx=0;exitDy=0;entryX=0.5;entryY=1;entryDx=0;entryDy=0;fillColor=#f8cecc;strokeColor=#006EAF;dashed=1;strokeWidth=2;" parent="1" source="CxoHVnS2cL3AwVolu_ET-225" target="CxoHVnS2cL3AwVolu_ET-224" edge="1">
          <mxGeometry width="50" height="50" relative="1" as="geometry">
            <mxPoint x="981" y="681" as="sourcePoint" />
            <mxPoint x="861" y="611" as="targetPoint" />
          </mxGeometry>
        </mxCell>
        <mxCell id="CxoHVnS2cL3AwVolu_ET-227" value="PR" style="text;html=1;strokeColor=none;fillColor=none;align=center;verticalAlign=middle;whiteSpace=wrap;rounded=1;" parent="1" vertex="1">
          <mxGeometry x="891" y="640" width="30" height="41" as="geometry" />
        </mxCell>
        <mxCell id="CxoHVnS2cL3AwVolu_ET-230" value="&lt;b&gt;Branches&lt;/b&gt;" style="text;html=1;strokeColor=none;fillColor=none;align=center;verticalAlign=middle;whiteSpace=wrap;rounded=1;" parent="1" vertex="1">
          <mxGeometry x="164" y="910" width="60" height="30" as="geometry" />
        </mxCell>
        <mxCell id="CxoHVnS2cL3AwVolu_ET-232" value="" style="text;html=1;strokeColor=#36393d;fillColor=#cdeb8b;align=center;verticalAlign=middle;whiteSpace=wrap;rounded=0;" parent="1" vertex="1">
          <mxGeometry x="450" y="950" width="35" height="20" as="geometry" />
        </mxCell>
        <mxCell id="CxoHVnS2cL3AwVolu_ET-233" value="Long-lived Branch" style="text;html=1;strokeColor=none;fillColor=none;align=center;verticalAlign=middle;whiteSpace=wrap;rounded=1;" parent="1" vertex="1">
          <mxGeometry x="423" y="970" width="92" height="30" as="geometry" />
        </mxCell>
        <mxCell id="CxoHVnS2cL3AwVolu_ET-234" value="" style="text;html=1;strokeColor=#BD7000;fillColor=#f0a30a;align=center;verticalAlign=middle;whiteSpace=wrap;rounded=0;fontColor=#000000;" parent="1" vertex="1">
          <mxGeometry x="551" y="950" width="35" height="20" as="geometry" />
        </mxCell>
        <mxCell id="CxoHVnS2cL3AwVolu_ET-235" value="Short-lived Branch" style="text;html=1;strokeColor=none;fillColor=none;align=center;verticalAlign=middle;whiteSpace=wrap;rounded=1;" parent="1" vertex="1">
          <mxGeometry x="524" y="970" width="92" height="30" as="geometry" />
        </mxCell>
        <mxCell id="CxoHVnS2cL3AwVolu_ET-236" value="" style="text;html=1;strokeColor=#36393d;fillColor=#ffff88;align=center;verticalAlign=middle;whiteSpace=wrap;rounded=0;" parent="1" vertex="1">
          <mxGeometry x="650" y="950" width="35" height="20" as="geometry" />
        </mxCell>
        <mxCell id="CxoHVnS2cL3AwVolu_ET-237" value="Dead-end Branch" style="text;html=1;strokeColor=none;fillColor=none;align=center;verticalAlign=middle;whiteSpace=wrap;rounded=1;" parent="1" vertex="1">
          <mxGeometry x="623" y="970" width="92" height="30" as="geometry" />
        </mxCell>
        <mxCell id="DnbEcoPxgvnVToLIo6h6-1" value="&amp;nbsp;DEV/ PREPROD&amp;nbsp;" style="text;html=1;strokeColor=#d6b656;fillColor=#fff2cc;align=center;verticalAlign=middle;whiteSpace=wrap;rounded=0;" vertex="1" parent="1">
          <mxGeometry x="149" y="516.5" width="90" height="45" as="geometry" />
        </mxCell>
        <mxCell id="DnbEcoPxgvnVToLIo6h6-2" value="" style="ellipse;whiteSpace=wrap;html=1;aspect=fixed;fillColor=#ffff88;strokeColor=#36393d;rounded=1;" vertex="1" parent="1">
          <mxGeometry x="351" y="523" width="30" height="30" as="geometry" />
        </mxCell>
        <mxCell id="DnbEcoPxgvnVToLIo6h6-5" value="" style="endArrow=classic;html=1;rounded=1;entryX=0;entryY=1;entryDx=0;entryDy=0;exitX=1;exitY=0;exitDx=0;exitDy=0;strokeWidth=2;dashed=1;dashPattern=8 4 1 4;" edge="1" parent="1">
          <mxGeometry width="50" height="50" relative="1" as="geometry">
            <mxPoint x="329" y="640" as="sourcePoint" />
            <mxPoint x="363" y="555" as="targetPoint" />
          </mxGeometry>
        </mxCell>
        <mxCell id="DnbEcoPxgvnVToLIo6h6-7" value="PR" style="edgeLabel;html=1;align=center;verticalAlign=middle;resizable=0;points=[];" vertex="1" connectable="0" parent="DnbEcoPxgvnVToLIo6h6-5">
          <mxGeometry x="0.0212" y="-3" relative="1" as="geometry">
            <mxPoint as="offset" />
          </mxGeometry>
        </mxCell>
        <mxCell id="DnbEcoPxgvnVToLIo6h6-6" value="Tag Version" style="text;html=1;strokeColor=none;fillColor=none;align=center;verticalAlign=middle;whiteSpace=wrap;rounded=1;" vertex="1" parent="1">
          <mxGeometry x="410" y="781" width="83" height="30" as="geometry" />
        </mxCell>
        <mxCell id="DnbEcoPxgvnVToLIo6h6-8" style="edgeStyle=orthogonalEdgeStyle;rounded=1;orthogonalLoop=1;jettySize=auto;html=1;strokeWidth=2;fillColor=#cce5ff;strokeColor=#000000;entryX=0;entryY=0.5;entryDx=0;entryDy=0;" edge="1" parent="1" target="CxoHVnS2cL3AwVolu_ET-147">
          <mxGeometry relative="1" as="geometry">
            <mxPoint x="380" y="539" as="sourcePoint" />
            <mxPoint x="586" y="543" as="targetPoint" />
          </mxGeometry>
        </mxCell>
        <mxCell id="DnbEcoPxgvnVToLIo6h6-9" value="" style="endArrow=classic;html=1;rounded=1;entryX=0;entryY=1;entryDx=0;entryDy=0;exitX=1;exitY=0;exitDx=0;exitDy=0;strokeWidth=2;dashed=1;dashPattern=8 4 1 4;" edge="1" parent="1">
          <mxGeometry width="50" height="50" relative="1" as="geometry">
            <mxPoint x="551" y="641" as="sourcePoint" />
            <mxPoint x="585" y="556" as="targetPoint" />
          </mxGeometry>
        </mxCell>
        <mxCell id="DnbEcoPxgvnVToLIo6h6-10" value="PR" style="edgeLabel;html=1;align=center;verticalAlign=middle;resizable=0;points=[];" vertex="1" connectable="0" parent="DnbEcoPxgvnVToLIo6h6-9">
          <mxGeometry x="0.0212" y="-3" relative="1" as="geometry">
            <mxPoint as="offset" />
          </mxGeometry>
        </mxCell>
        <mxCell id="DnbEcoPxgvnVToLIo6h6-14" style="edgeStyle=orthogonalEdgeStyle;rounded=1;orthogonalLoop=1;jettySize=auto;html=1;entryX=0;entryY=0.5;entryDx=0;entryDy=0;strokeWidth=2;" edge="1" parent="1">
          <mxGeometry relative="1" as="geometry">
            <mxPoint x="322" y="959.5" as="sourcePoint" />
            <mxPoint x="372" y="959.5" as="targetPoint" />
          </mxGeometry>
        </mxCell>
        <mxCell id="DnbEcoPxgvnVToLIo6h6-15" value="Branching" style="text;html=1;strokeColor=none;fillColor=none;align=center;verticalAlign=middle;whiteSpace=wrap;rounded=1;" vertex="1" parent="1">
          <mxGeometry x="320" y="970" width="60" height="30" as="geometry" />
        </mxCell>
        <mxCell id="DnbEcoPxgvnVToLIo6h6-16" value="Tag Version" style="text;html=1;strokeColor=none;fillColor=none;align=center;verticalAlign=middle;whiteSpace=wrap;rounded=1;" vertex="1" parent="1">
          <mxGeometry x="610" y="788" width="83" height="30" as="geometry" />
        </mxCell>
      </root>
    </mxGraphModel>
  </diagram>
</mxfile>
